<?xml version="1.0" encoding="UTF-8" standalone="no"?>
<!-- Generator: Adobe Illustrator 22.1.0, SVG Export Plug-In . SVG Version: 6.00 Build 0)  -->

<svg
   xmlns:dc="http://purl.org/dc/elements/1.1/"
   xmlns:cc="http://creativecommons.org/ns#"
   xmlns:rdf="http://www.w3.org/1999/02/22-rdf-syntax-ns#"
   xmlns:svg="http://www.w3.org/2000/svg"
   xmlns="http://www.w3.org/2000/svg"
   xmlns:xlink="http://www.w3.org/1999/xlink"
   xmlns:sodipodi="http://sodipodi.sourceforge.net/DTD/sodipodi-0.dtd"
   xmlns:inkscape="http://www.inkscape.org/namespaces/inkscape"
   version="1.1"
   id="Capa_1"
   x="0px"
   y="0px"
   viewBox="0 0 1679.5113 1171.958"
   xml:space="preserve"
   sodipodi:docname="infografia_en.svg"
   inkscape:version="0.92.3 (2405546, 2018-03-11)"
   width="1679.5112"
   height="1171.958"><metadata
   id="metadata1966"><rdf:RDF><cc:Work
       rdf:about=""><dc:format>image/svg+xml</dc:format><dc:type
         rdf:resource="http://purl.org/dc/dcmitype/StillImage" /><dc:title></dc:title></cc:Work></rdf:RDF></metadata><defs
   id="defs1964" /><sodipodi:namedview
   pagecolor="#ffffff"
   bordercolor="#666666"
   borderopacity="1"
   objecttolerance="10"
   gridtolerance="10"
   guidetolerance="10"
   inkscape:pageopacity="0"
   inkscape:pageshadow="2"
   inkscape:window-width="1280"
   inkscape:window-height="961"
   id="namedview1962"
   showgrid="false"
   inkscape:zoom="0.41"
   inkscape:cx="775.07062"
   inkscape:cy="523.76038"
   inkscape:window-x="-4"
   inkscape:window-y="-4"
   inkscape:window-maximized="1"
   inkscape:current-layer="Capa_1"
   fit-margin-top="-0.5"
   fit-margin-left="0"
   fit-margin-right="0"
   fit-margin-bottom="0" />
<style
   type="text/css"
   id="style1679">
	.st0{opacity:0;clip-path:url(#SVGID_2_);fill-rule:evenodd;clip-rule:evenodd;fill:#FFFFFF;}
	.st1{fill:none;}
	.st2{fill:#231F20;}
	.st3{font-family:'Apercu-Bold';}
	.st4{font-size:31.5px;}
	.st5{fill:#E84F52;}
	.st6{font-size:31.4973px;}
	.st7{font-size:73.8809px;}
	.st8{fill:none;stroke:#3B31F5;stroke-width:8.9992;stroke-miterlimit:10;}
	.st9{fill:#3B31F5;}
	.st10{fill:none;stroke:#3B31F5;stroke-width:2.8371;stroke-miterlimit:10;}
	.st11{font-size:39.782px;}
	.st12{fill:#FFFFFF;}
</style>
<g
   id="g1689"
   transform="translate(-579.02562,-169.94191)">
	<defs
   id="defs1682">
		<rect
   id="SVGID_1_"
   x="-1560.5"
   y="-3198.3999"
   width="499"
   height="373" />
	</defs>
	<clipPath
   id="SVGID_2_">
		<use
   xlink:href="#SVGID_1_"
   style="overflow:visible"
   id="use1684"
   x="0"
   y="0"
   width="100%"
   height="100%" />
	</clipPath>
	<rect
   x="-1560.5"
   y="-3198.3999"
   class="st0"
   width="499"
   height="373"
   clip-path="url(#SVGID_2_)"
   id="rect1687"
   style="clip-rule:evenodd;opacity:0;fill:#ffffff;fill-rule:evenodd" />
</g>
<rect
   x="1539.4744"
   y="610.1582"
   class="st1"
   width="180.2"
   height="87.400002"
   id="rect1691"
   style="fill:none" />
<text
   id="text1697"
   x="1567.553"
   y="632.43408"><tspan
     x="1567.553"
     y="632.43408"
     class="st2 st3 st4"
     id="tspan1693"
     style="font-size:31.5px;font-family:Apercu-Bold;fill:#231f20">Quality</tspan><tspan
     x="1571.7529"
     y="670.23413"
     class="st2 st3 st4"
     id="tspan1695"
     style="font-size:31.5px;font-family:Apercu-Bold;fill:#231f20">Robust</tspan></text>


<rect
   x="876.37427"
   y="1072.458"
   class="st1"
   width="444"
   height="99.5"
   id="rect1699"
   style="fill:none" />
<text
   id="text1705"
   x="938.70264"
   y="1094.7119"><tspan
     x="938.70264"
     y="1094.7119"
     class="st5 st3 st6"
     id="tspan1701"
     style="font-size:31.49729919px;font-family:Apercu-Bold;fill:#e84f52">Citizens / Business</tspan><tspan
     x="881.30273"
     y="1132.5122"
     class="st5 st3 st6"
     id="tspan1703"
     style="font-size:31.49729919px;font-family:Apercu-Bold;fill:#e84f52">Academia / Communities</tspan></text>


<rect
   x="241.57448"
   y="1089.1582"
   class="st1"
   width="256.70001"
   height="99.5"
   id="rect1707"
   style="fill:none" />
<text
   id="text1713"
   x="253.58888"
   y="1111.501"><tspan
     x="253.58888"
     y="1111.501"
     class="st5 st3 st6"
     id="tspan1709"
     style="font-size:31.49729919px;font-family:Apercu-Bold;fill:#e84f52">BCN Data</tspan><tspan
     x="253.58888"
     y="1149.3008"
     class="st5 st3 st6"
     id="tspan1711"
     style="font-size:31.49729919px;font-family:Apercu-Bold;fill:#e84f52">Analytics Office</tspan></text>


<rect
   x="223.77443"
   y="701.05811"
   class="st1"
   width="292.39999"
   height="99.5"
   id="rect1715"
   style="fill:none" />
<text
   id="text1721"
   x="231.24123"
   y="723.34912"><tspan
     x="244.94118"
     y="761.14893"
     class="st5 st3 st6"
     id="tspan1719"
     style="font-size:31.49729919px;font-family:Apercu-Bold;fill:#e84f52">BCN Data Teams</tspan></text>


<rect
   x="482.27444"
   y="860.55811"
   class="st1"
   width="391.20001"
   height="76.5"
   id="rect1723"
   style="fill:none" />
<text
   id="text1729"
   x="600.23657"
   y="901.78174"><tspan
     x="600.23657"
     y="901.78174"
     class="st2 st3 st6"
     id="tspan1725"
     style="font-size:31.49729919px;font-family:Apercu-Bold;fill:#231f20">Use cases</tspan></text>


<rect
   x="482.27444"
   y="1009.1582"
   class="st1"
   width="391.20001"
   height="99.5"
   id="rect1731"
   style="fill:none" />
<text
   class="st2 st3 st6"
   id="text1733"
   x="618.76392"
   y="1031.4082"
   style="font-size:31.49729919px;font-family:Apercu-Bold;fill:#231f20">Insight</text>


<rect
   x="994.07446"
   y="2.0580881"
   class="st1"
   width="395.79999"
   height="82"
   id="rect1735"
   style="fill:none" />
<text
   class="st5 st3 st7"
   id="text1737"
   style="font-size:73.88089752px;font-family:Apercu-Bold;fill:#e84f52"
   x="994.09741"
   y="54.333477">BCN DATA</text>


<g
   id="g1751"
   transform="translate(-579.02562,-169.94191)">
	<g
   id="g1749">
		<line
   class="st8"
   x1="1179.2"
   y1="1125.3"
   x2="1334.7"
   y2="1125.3"
   id="line1739"
   style="fill:none;stroke:#3b31f5;stroke-width:8.99919987;stroke-miterlimit:10" />
		<g
   id="g1743">
			<polygon
   class="st9"
   points="1154.7,1125.3 1184.2,1108.2 1184.2,1142.3 "
   id="polygon1741"
   style="fill:#3b31f5" />
		</g>
		<g
   id="g1747">
			<polygon
   class="st9"
   points="1359.2,1125.3 1329.7,1108.2 1329.7,1142.3 "
   id="polygon1745"
   style="fill:#3b31f5" />
		</g>
	</g>
</g>
<g
   id="g1765"
   transform="translate(-579.02562,-169.94191)">
	<g
   id="g1763">
		<line
   class="st10"
   x1="949"
   y1="1078"
   x2="949"
   y2="1109.5"
   id="line1753"
   style="fill:none;stroke:#3b31f5;stroke-width:2.83710003;stroke-miterlimit:10" />
		<g
   id="g1757">
			<polygon
   class="st9"
   points="949,1069.8 954.7,1079.6 943.3,1079.6 "
   id="polygon1755"
   style="fill:#3b31f5" />
		</g>
		<g
   id="g1761">
			<polygon
   class="st9"
   points="949,1117.6 954.7,1107.8 943.3,1107.8 "
   id="polygon1759"
   style="fill:#3b31f5" />
		</g>
	</g>
</g>
<g
   id="g1787"
   transform="translate(-579.02562,-169.94191)">
	<g
   id="g1775">
		<g
   id="g1769">
			<path
   class="st5"
   d="m 906.6,997.1 c -12.3,0 -22.3,-10 -22.3,-22.3 0,-12.3 10,-22.3 22.3,-22.3 12.3,0 22.3,10 22.3,22.3 -0.1,12.3 -10.1,22.3 -22.3,22.3 z m 0,-34.1 c -6.5,0 -11.8,5.3 -11.8,11.8 0,6.5 5.3,11.8 11.8,11.8 6.5,0 11.8,-5.3 11.8,-11.8 0,-6.5 -5.3,-11.8 -11.8,-11.8 z"
   id="path1767"
   inkscape:connector-curvature="0"
   style="fill:#e84f52" />
		</g>
		<g
   id="g1773">
			<path
   class="st5"
   d="m 937.9,1042.6 c -2.9,0 -5.2,-2.3 -5.2,-5.2 0,-14.4 -11.7,-26.1 -26.1,-26.1 -14.4,0 -26.1,11.7 -26.1,26.1 0,2.9 -2.3,5.2 -5.2,5.2 -2.9,0 -5.2,-2.3 -5.2,-5.2 0,-20.2 16.4,-36.6 36.6,-36.6 20.2,0 36.6,16.4 36.6,36.6 -0.2,2.8 -2.5,5.2 -5.4,5.2 z"
   id="path1771"
   inkscape:connector-curvature="0"
   style="fill:#e84f52" />
		</g>
	</g>
	<g
   id="g1785">
		<g
   id="g1779">
			<path
   class="st5"
   d="m 991.4,997.1 c -12.3,0 -22.3,-10 -22.3,-22.3 0,-12.3 10,-22.3 22.3,-22.3 12.3,0 22.3,10 22.3,22.3 0,12.3 -10,22.3 -22.3,22.3 z m 0,-34.1 c -6.5,0 -11.8,5.3 -11.8,11.8 0,6.5 5.3,11.8 11.8,11.8 6.5,0 11.8,-5.3 11.8,-11.8 0.1,-6.5 -5.2,-11.8 -11.8,-11.8 z"
   id="path1777"
   inkscape:connector-curvature="0"
   style="fill:#e84f52" />
		</g>
		<g
   id="g1783">
			<path
   class="st5"
   d="m 1022.8,1042.6 c -2.9,0 -5.2,-2.3 -5.2,-5.2 0,-14.4 -11.7,-26.1 -26.1,-26.1 -14.4,0 -26.1,11.7 -26.1,26.1 0,2.9 -2.3,5.2 -5.2,5.2 -2.9,0 -5.2,-2.3 -5.2,-5.2 0,-20.2 16.4,-36.6 36.6,-36.6 20.2,0 36.6,16.4 36.6,36.6 -0.2,2.8 -2.5,5.2 -5.4,5.2 z"
   id="path1781"
   inkscape:connector-curvature="0"
   style="fill:#e84f52" />
		</g>
	</g>
</g>
<g
   id="g1809"
   transform="translate(-579.02562,-169.94191)">
	<g
   id="g1797">
		<g
   id="g1791">
			<path
   class="st5"
   d="m 906.6,1189.4 c -12.3,0 -22.3,-10 -22.3,-22.3 0,-12.3 10,-22.3 22.3,-22.3 12.3,0 22.3,10 22.3,22.3 -0.1,12.3 -10.1,22.3 -22.3,22.3 z m 0,-34.1 c -6.5,0 -11.8,5.3 -11.8,11.8 0,6.5 5.3,11.8 11.8,11.8 6.5,0 11.8,-5.3 11.8,-11.8 0,-6.5 -5.3,-11.8 -11.8,-11.8 z"
   id="path1789"
   inkscape:connector-curvature="0"
   style="fill:#e84f52" />
		</g>
		<g
   id="g1795">
			<path
   class="st5"
   d="m 937.9,1235 c -2.9,0 -5.2,-2.3 -5.2,-5.2 0,-14.4 -11.7,-26.1 -26.1,-26.1 -14.4,0 -26.1,11.7 -26.1,26.1 0,2.9 -2.3,5.2 -5.2,5.2 -2.9,0 -5.2,-2.3 -5.2,-5.2 0,-20.2 16.4,-36.6 36.6,-36.6 20.2,0 36.6,16.4 36.6,36.6 -0.2,2.8 -2.5,5.2 -5.4,5.2 z"
   id="path1793"
   inkscape:connector-curvature="0"
   style="fill:#e84f52" />
		</g>
	</g>
	<g
   id="g1807">
		<g
   id="g1801">
			<path
   class="st5"
   d="m 991.4,1189.4 c -12.3,0 -22.3,-10 -22.3,-22.3 0,-12.3 10,-22.3 22.3,-22.3 12.3,0 22.3,10 22.3,22.3 0,12.3 -10,22.3 -22.3,22.3 z m 0,-34.1 c -6.5,0 -11.8,5.3 -11.8,11.8 0,6.5 5.3,11.8 11.8,11.8 6.5,0 11.8,-5.3 11.8,-11.8 0.1,-6.5 -5.2,-11.8 -11.8,-11.8 z"
   id="path1799"
   inkscape:connector-curvature="0"
   style="fill:#e84f52" />
		</g>
		<g
   id="g1805">
			<path
   class="st5"
   d="m 1022.8,1235 c -2.9,0 -5.2,-2.3 -5.2,-5.2 0,-14.4 -11.7,-26.1 -26.1,-26.1 -14.4,0 -26.1,11.7 -26.1,26.1 0,2.9 -2.3,5.2 -5.2,5.2 -2.9,0 -5.2,-2.3 -5.2,-5.2 0,-20.2 16.4,-36.6 36.6,-36.6 20.2,0 36.6,16.4 36.6,36.6 -0.2,2.8 -2.5,5.2 -5.4,5.2 z"
   id="path1803"
   inkscape:connector-curvature="0"
   style="fill:#e84f52" />
		</g>
	</g>
</g>
<g
   id="g1901"
   transform="translate(-579.02562,-169.94191)">
	<g
   id="g1819">
		<g
   id="g1813">
			<path
   class="st5"
   d="m 1678,1005.3 c -12.3,0 -22.3,-10 -22.3,-22.3 0,-12.3 10,-22.3 22.3,-22.3 12.3,0 22.3,10 22.3,22.3 0,12.3 -10,22.3 -22.3,22.3 z m 0,-34.1 c -6.5,0 -11.8,5.3 -11.8,11.8 0,6.5 5.3,11.8 11.8,11.8 6.5,0 11.8,-5.3 11.8,-11.8 0,-6.5 -5.3,-11.8 -11.8,-11.8 z"
   id="path1811"
   inkscape:connector-curvature="0"
   style="fill:#e84f52" />
		</g>
		<g
   id="g1817">
			<path
   class="st5"
   d="m 1709.3,1050.8 c -2.9,0 -5.2,-2.3 -5.2,-5.2 0,-14.4 -11.7,-26.1 -26.1,-26.1 -14.4,0 -26.1,11.7 -26.1,26.1 0,2.9 -2.3,5.2 -5.2,5.2 -2.9,0 -5.2,-2.3 -5.2,-5.2 0,-20.2 16.4,-36.6 36.6,-36.6 20.2,0 36.6,16.4 36.6,36.6 -0.1,2.9 -2.5,5.2 -5.4,5.2 z"
   id="path1815"
   inkscape:connector-curvature="0"
   style="fill:#e84f52" />
		</g>
	</g>
	<g
   id="g1829">
		<g
   id="g1823">
			<path
   class="st5"
   d="m 1762.9,1005.3 c -12.3,0 -22.3,-10 -22.3,-22.3 0,-12.3 10,-22.3 22.3,-22.3 12.3,0 22.3,10 22.3,22.3 0,12.3 -10,22.3 -22.3,22.3 z m 0,-34.1 c -6.5,0 -11.8,5.3 -11.8,11.8 0,6.5 5.3,11.8 11.8,11.8 6.5,0 11.8,-5.3 11.8,-11.8 0,-6.5 -5.3,-11.8 -11.8,-11.8 z"
   id="path1821"
   inkscape:connector-curvature="0"
   style="fill:#e84f52" />
		</g>
		<g
   id="g1827">
			<path
   class="st5"
   d="m 1794.2,1050.8 c -2.9,0 -5.2,-2.3 -5.2,-5.2 0,-14.4 -11.7,-26.1 -26.1,-26.1 -14.4,0 -26.1,11.7 -26.1,26.1 0,2.9 -2.3,5.2 -5.2,5.2 -2.9,0 -5.2,-2.3 -5.2,-5.2 0,-20.2 16.4,-36.6 36.6,-36.6 20.2,0 36.6,16.4 36.6,36.6 -0.2,2.9 -2.5,5.2 -5.4,5.2 z"
   id="path1825"
   inkscape:connector-curvature="0"
   style="fill:#e84f52" />
		</g>
	</g>
	<g
   id="g1839">
		<g
   id="g1833">
			<path
   class="st5"
   d="m 1593.1,1086.1 c -12.3,0 -22.3,-10 -22.3,-22.3 0,-12.3 10,-22.3 22.3,-22.3 12.3,0 22.3,10 22.3,22.3 0,12.3 -10,22.3 -22.3,22.3 z m 0,-34.1 c -6.5,0 -11.8,5.3 -11.8,11.8 0,6.5 5.3,11.8 11.8,11.8 6.5,0 11.8,-5.3 11.8,-11.8 0,-6.5 -5.3,-11.8 -11.8,-11.8 z"
   id="path1831"
   inkscape:connector-curvature="0"
   style="fill:#e84f52" />
		</g>
		<g
   id="g1837">
			<path
   class="st5"
   d="m 1624.4,1131.6 c -2.9,0 -5.2,-2.3 -5.2,-5.2 0,-14.4 -11.7,-26.1 -26.1,-26.1 -14.4,0 -26.1,11.7 -26.1,26.1 0,2.9 -2.3,5.2 -5.2,5.2 -2.9,0 -5.2,-2.3 -5.2,-5.2 0,-20.2 16.4,-36.6 36.6,-36.6 20.2,0 36.6,16.4 36.6,36.6 -0.1,2.9 -2.5,5.2 -5.4,5.2 z"
   id="path1835"
   inkscape:connector-curvature="0"
   style="fill:#e84f52" />
		</g>
	</g>
	<g
   id="g1849">
		<g
   id="g1843">
			<path
   class="st5"
   d="m 1593.1,1005.2 c -12.3,0 -22.3,-10 -22.3,-22.3 0,-12.3 10,-22.3 22.3,-22.3 12.3,0 22.3,10 22.3,22.3 0,12.3 -10,22.3 -22.3,22.3 z m 0,-34.1 c -6.5,0 -11.8,5.3 -11.8,11.8 0,6.5 5.3,11.8 11.8,11.8 6.5,0 11.8,-5.3 11.8,-11.8 0,-6.5 -5.3,-11.8 -11.8,-11.8 z"
   id="path1841"
   inkscape:connector-curvature="0"
   style="fill:#e84f52" />
		</g>
		<g
   id="g1847">
			<path
   class="st5"
   d="m 1624.4,1050.7 c -2.9,0 -5.2,-2.3 -5.2,-5.2 0,-14.4 -11.7,-26.1 -26.1,-26.1 -14.4,0 -26.1,11.7 -26.1,26.1 0,2.9 -2.3,5.2 -5.2,5.2 -2.9,0 -5.2,-2.3 -5.2,-5.2 0,-20.2 16.4,-36.6 36.6,-36.6 20.2,0 36.6,16.4 36.6,36.6 -0.1,2.8 -2.5,5.2 -5.4,5.2 z"
   id="path1845"
   inkscape:connector-curvature="0"
   style="fill:#e84f52" />
		</g>
	</g>
	<g
   id="g1859">
		<g
   id="g1853">
			<path
   class="st5"
   d="m 1678,1086.1 c -12.3,0 -22.3,-10 -22.3,-22.3 0,-12.3 10,-22.3 22.3,-22.3 12.3,0 22.3,10 22.3,22.3 0,12.3 -10,22.3 -22.3,22.3 z m 0,-34.1 c -6.5,0 -11.8,5.3 -11.8,11.8 0,6.5 5.3,11.8 11.8,11.8 6.5,0 11.8,-5.3 11.8,-11.8 0,-6.5 -5.3,-11.8 -11.8,-11.8 z"
   id="path1851"
   inkscape:connector-curvature="0"
   style="fill:#e84f52" />
		</g>
		<g
   id="g1857">
			<path
   class="st5"
   d="m 1709.3,1131.6 c -2.9,0 -5.2,-2.3 -5.2,-5.2 0,-14.4 -11.7,-26.1 -26.1,-26.1 -14.4,0 -26.1,11.7 -26.1,26.1 0,2.9 -2.3,5.2 -5.2,5.2 -2.9,0 -5.2,-2.3 -5.2,-5.2 0,-20.2 16.4,-36.6 36.6,-36.6 20.2,0 36.6,16.4 36.6,36.6 -0.1,2.9 -2.5,5.2 -5.4,5.2 z"
   id="path1855"
   inkscape:connector-curvature="0"
   style="fill:#e84f52" />
		</g>
	</g>
	<g
   id="g1869">
		<g
   id="g1863">
			<path
   class="st5"
   d="m 1762.9,1086.1 c -12.3,0 -22.3,-10 -22.3,-22.3 0,-12.3 10,-22.3 22.3,-22.3 12.3,0 22.3,10 22.3,22.3 0,12.3 -10,22.3 -22.3,22.3 z m 0,-34.1 c -6.5,0 -11.8,5.3 -11.8,11.8 0,6.5 5.3,11.8 11.8,11.8 6.5,0 11.8,-5.3 11.8,-11.8 0,-6.5 -5.3,-11.8 -11.8,-11.8 z"
   id="path1861"
   inkscape:connector-curvature="0"
   style="fill:#e84f52" />
		</g>
		<g
   id="g1867">
			<path
   class="st5"
   d="m 1794.2,1131.6 c -2.9,0 -5.2,-2.3 -5.2,-5.2 0,-14.4 -11.7,-26.1 -26.1,-26.1 -14.4,0 -26.1,11.7 -26.1,26.1 0,2.9 -2.3,5.2 -5.2,5.2 -2.9,0 -5.2,-2.3 -5.2,-5.2 0,-20.2 16.4,-36.6 36.6,-36.6 20.2,0 36.6,16.4 36.6,36.6 -0.2,2.9 -2.5,5.2 -5.4,5.2 z"
   id="path1865"
   inkscape:connector-curvature="0"
   style="fill:#e84f52" />
		</g>
	</g>
	<g
   id="g1879">
		<g
   id="g1873">
			<path
   class="st5"
   d="m 1593.1,1166.9 c -12.3,0 -22.3,-10 -22.3,-22.3 0,-12.3 10,-22.3 22.3,-22.3 12.3,0 22.3,10 22.3,22.3 0,12.3 -10,22.3 -22.3,22.3 z m 0,-34.1 c -6.5,0 -11.8,5.3 -11.8,11.8 0,6.5 5.3,11.8 11.8,11.8 6.5,0 11.8,-5.3 11.8,-11.8 0,-6.5 -5.3,-11.8 -11.8,-11.8 z"
   id="path1871"
   inkscape:connector-curvature="0"
   style="fill:#e84f52" />
		</g>
		<g
   id="g1877">
			<path
   class="st5"
   d="m 1624.4,1212.4 c -2.9,0 -5.2,-2.3 -5.2,-5.2 0,-14.4 -11.7,-26.1 -26.1,-26.1 -14.4,0 -26.1,11.7 -26.1,26.1 0,2.9 -2.3,5.2 -5.2,5.2 -2.9,0 -5.2,-2.3 -5.2,-5.2 0,-20.2 16.4,-36.6 36.6,-36.6 20.2,0 36.6,16.4 36.6,36.6 -0.1,2.9 -2.5,5.2 -5.4,5.2 z"
   id="path1875"
   inkscape:connector-curvature="0"
   style="fill:#e84f52" />
		</g>
	</g>
	<g
   id="g1889">
		<g
   id="g1883">
			<path
   class="st5"
   d="m 1678,1166.9 c -12.3,0 -22.3,-10 -22.3,-22.3 0,-12.3 10,-22.3 22.3,-22.3 12.3,0 22.3,10 22.3,22.3 0,12.3 -10,22.3 -22.3,22.3 z m 0,-34.1 c -6.5,0 -11.8,5.3 -11.8,11.8 0,6.5 5.3,11.8 11.8,11.8 6.5,0 11.8,-5.3 11.8,-11.8 0,-6.5 -5.3,-11.8 -11.8,-11.8 z"
   id="path1881"
   inkscape:connector-curvature="0"
   style="fill:#e84f52" />
		</g>
		<g
   id="g1887">
			<path
   class="st5"
   d="m 1709.3,1212.4 c -2.9,0 -5.2,-2.3 -5.2,-5.2 0,-14.4 -11.7,-26.1 -26.1,-26.1 -14.4,0 -26.1,11.7 -26.1,26.1 0,2.9 -2.3,5.2 -5.2,5.2 -2.9,0 -5.2,-2.3 -5.2,-5.2 0,-20.2 16.4,-36.6 36.6,-36.6 20.2,0 36.6,16.4 36.6,36.6 -0.1,2.9 -2.5,5.2 -5.4,5.2 z"
   id="path1885"
   inkscape:connector-curvature="0"
   style="fill:#e84f52" />
		</g>
	</g>
	<g
   id="g1899">
		<g
   id="g1893">
			<path
   class="st5"
   d="m 1762.9,1166.9 c -12.3,0 -22.3,-10 -22.3,-22.3 0,-12.3 10,-22.3 22.3,-22.3 12.3,0 22.3,10 22.3,22.3 0,12.3 -10,22.3 -22.3,22.3 z m 0,-34.1 c -6.5,0 -11.8,5.3 -11.8,11.8 0,6.5 5.3,11.8 11.8,11.8 6.5,0 11.8,-5.3 11.8,-11.8 0,-6.5 -5.3,-11.8 -11.8,-11.8 z"
   id="path1891"
   inkscape:connector-curvature="0"
   style="fill:#e84f52" />
		</g>
		<g
   id="g1897">
			<path
   class="st5"
   d="m 1794.2,1212.4 c -2.9,0 -5.2,-2.3 -5.2,-5.2 0,-14.4 -11.7,-26.1 -26.1,-26.1 -14.4,0 -26.1,11.7 -26.1,26.1 0,2.9 -2.3,5.2 -5.2,5.2 -2.9,0 -5.2,-2.3 -5.2,-5.2 0,-20.2 16.4,-36.6 36.6,-36.6 20.2,0 36.6,16.4 36.6,36.6 -0.2,2.9 -2.5,5.2 -5.4,5.2 z"
   id="path1895"
   inkscape:connector-curvature="0"
   style="fill:#e84f52" />
		</g>
	</g>
</g>
<g
   id="g1911"
   transform="translate(-579.02562,-169.94191)">
	<g
   id="g1909">
		<path
   class="st8"
   d="M 659.9,920.3 C 634,899.6 612.6,872.3 599.4,839.2 568.8,766.4 584,685.7 631.5,628.8"
   id="path1903"
   inkscape:connector-curvature="0"
   style="fill:none;stroke:#3b31f5;stroke-width:8.99919987;stroke-miterlimit:10" />
		<g
   id="g1907">
			<polygon
   class="st9"
   points="679.9,934.5 646,931.1 665.9,903.4 "
   id="polygon1905"
   style="fill:#3b31f5" />
		</g>
	</g>
</g>
<g
   id="g1921"
   transform="translate(-579.02562,-169.94191)">
	<g
   id="g1919">
		<path
   class="st8"
   d="m 1985.1,962 c 27.2,-19 50.3,-44.9 65.6,-77.1 35.3,-70.7 25.2,-152.2 -18.5,-212.1"
   id="path1913"
   inkscape:connector-curvature="0"
   style="fill:none;stroke:#3b31f5;stroke-width:8.99919987;stroke-miterlimit:10" />
		<g
   id="g1917">
			<polygon
   class="st9"
   points="1964.1,974.8 1980.1,944.7 1998.2,973.6 "
   id="polygon1915"
   style="fill:#3b31f5" />
		</g>
	</g>
</g>
<g
   id="g1931"
   transform="translate(-579.02562,-169.94191)">
	<g
   id="g1929">
		<path
   class="st8"
   d="m 1404.4,246.6 c -24.7,-22 -55.3,-38.5 -90.2,-46 -76.9,-17.9 -153.9,10.7 -202,67.2"
   id="path1923"
   inkscape:connector-curvature="0"
   style="fill:none;stroke:#3b31f5;stroke-width:8.99919987;stroke-miterlimit:10" />
		<g
   id="g1927">
			<polygon
   class="st9"
   points="1421.7,264 1388.7,255.4 1412.6,231.1 "
   id="polygon1925"
   style="fill:#3b31f5" />
		</g>
	</g>
</g>
<rect
   x="67.47438"
   y="91.758041"
   class="st1"
   width="485.29999"
   height="341.10001"
   id="rect1933"
   style="fill:none" />
<text
   id="text1945"
   x="67.479263"
   y="144.09373"><tspan
     x="67.479263"
     y="144.09373"
     class="st5 st3 st7"
     id="tspan1935"
     style="font-size:73.88089752px;font-family:Apercu-Bold;fill:#e84f52">BCN</tspan><tspan
     x="67.479263"
     y="216.09373"
     class="st5 st3 st7"
     id="tspan1937"
     style="font-size:73.88089752px;font-family:Apercu-Bold;fill:#e84f52">AGENCIES</tspan><tspan
     x="67.479263"
     y="275.79367"
     class="st5 st3 st11"
     id="tspan1939"
     style="font-size:39.7820015px;font-family:Apercu-Bold;fill:#e84f52">TMB, BIM/SA, B:SM</tspan><tspan
     x="67.479263"
     y="323.49362"
     class="st5 st3 st11"
     id="tspan1941"
     style="font-size:39.7820015px;font-family:Apercu-Bold;fill:#e84f52">Guàrdia Urbana,</tspan><tspan
     x="67.479263"
     y="371.29367"
     class="st5 st3 st11"
     id="tspan1943"
     style="font-size:39.7820015px;font-family:Apercu-Bold;fill:#e84f52">Housing</tspan></text>


<g
   id="g1959"
   transform="translate(-579.02562,-169.94191)">
	<path
   class="st12"
   d="m 1791.6,273.6 c 0,0 42.1,2.5 49.5,13.2 7.4,10.7 7.4,159.2 7.4,159.2 0,0 5.8,6.6 -5.8,11.5 -11.5,4.9 -78.4,15.5 -84.1,12.7 -2.8,-1.4 -47.8,-0.4 -63.5,-12.7 -14,-11 -9.1,-102.3 -9.1,-102.3 v -56.1 l 11.5,-13.2 35.5,-12.4 h 58.6 z"
   id="path1947"
   inkscape:connector-curvature="0"
   style="fill:#ffffff" />
	<path
   class="st5"
   d="m 1681,298.1 v 148.5 c 0,20.3 43.6,30.9 86.6,30.9 43,0 86.6,-10.6 86.6,-30.9 V 298.1 c 0,-20.3 -43.6,-30.9 -86.6,-30.9 -43,0 -86.6,10.6 -86.6,30.9 z m 160.9,99 c 0,6.5 -28.2,18.6 -74.2,18.6 -46.1,0 -74.2,-12 -74.2,-18.6 v -32.8 c 16,9.4 45.2,14.2 74.2,14.2 29,0 58.3,-4.8 74.2,-14.2 z m 0,-49.5 c 0,6.5 -28.2,18.6 -74.2,18.6 -46.1,0 -74.2,-12 -74.2,-18.6 v -32.8 c 16,9.4 45.2,14.2 74.2,14.2 29,0 58.3,-4.8 74.2,-14.2 z m -74.2,117.5 c -46.1,0 -74.2,-12 -74.2,-18.6 v -32.8 c 16,9.4 45.2,14.2 74.2,14.2 29,0 58.3,-4.8 74.2,-14.2 v 32.8 c 0,6.6 -28.2,18.6 -74.2,18.6 z m 0,-185.6 c 46.1,0 74.2,12 74.2,18.6 0,6.6 -28.2,18.6 -74.2,18.6 -46.1,0 -74.2,-12 -74.2,-18.6 0,-6.6 28.1,-18.6 74.2,-18.6 z"
   id="path1949"
   inkscape:connector-curvature="0"
   style="fill:#e84f52" />
	<polygon
   class="st12"
   points="1627.4,503.7 1687.6,503.7 1727.2,496.3 1747,484.7 1747,380 1727.2,363.5 1674.4,356.1 1634,356.1 1606,365.1 1586.2,375.9 1586.2,486.4 "
   id="polygon1951"
   style="fill:#ffffff" />
	<path
   class="st5"
   d="m 1578.8,380.8 v 59.6 40.2 c 0,20.3 43.6,30.9 86.6,30.9 43,0 86.6,-10.6 86.6,-30.9 v -38 -61.8 c 0,-20.3 -43.6,-30.9 -86.6,-30.9 -43.1,0 -86.6,10.6 -86.6,30.9 z m 160.8,50.3 c 0,6.5 -28.2,18.6 -74.2,18.6 -46.1,0 -74.2,-12 -74.2,-18.6 V 447 c 16,9.4 45.2,14.2 74.2,14.2 29,0 58.3,-4.8 74.2,-14.2 z m 0,-0.8 c 0,6.5 -28.2,18.6 -74.2,18.6 -46.1,0 -74.2,-12 -74.2,-18.6 v -32.8 c 16,9.4 45.2,14.2 74.2,14.2 29,0 58.3,-4.8 74.2,-14.2 z m -74.2,68.9 c -46.1,0 -74.2,-12 -74.2,-18.6 v -32.8 c 16,9.4 45.2,14.2 74.2,14.2 29,0 58.3,-4.8 74.2,-14.2 v 32.8 c 0,6.6 -28.2,18.6 -74.2,18.6 z m 0,-136.9 c 46.1,0 74.2,12 74.2,18.6 0,6.6 -28.2,18.6 -74.2,18.6 -46.1,0 -74.2,-12 -74.2,-18.6 0,-6.6 28.1,-18.6 74.2,-18.6 z"
   id="path1953"
   inkscape:connector-curvature="0"
   style="fill:#e84f52" />
	<polygon
   class="st12"
   points="1777.6,550.5 1837.8,550.5 1877.4,543.1 1897.2,531.5 1897.2,426.8 1877.4,410.3 1824.6,402.9 1784.2,402.9 1756.1,411.9 1736.3,422.7 1736.3,533.2 "
   id="polygon1955"
   style="fill:#ffffff" />
	<path
   class="st5"
   d="m 1728.9,427.6 v 59.6 40.2 c 0,20.3 43.6,30.9 86.6,30.9 43,0 86.6,-10.6 86.6,-30.9 v -38 -61.8 c 0,-20.3 -43.6,-30.9 -86.6,-30.9 -43,0 -86.6,10.6 -86.6,30.9 z m 160.8,50.3 c 0,6.5 -28.2,18.6 -74.2,18.6 -46.1,0 -74.2,-12 -74.2,-18.6 v 15.9 c 16,9.4 45.2,14.2 74.2,14.2 29,0 58.3,-4.8 74.2,-14.2 z m 0,-0.8 c 0,6.5 -28.2,18.6 -74.2,18.6 -46.1,0 -74.2,-12 -74.2,-18.6 v -32.8 c 16,9.4 45.2,14.2 74.2,14.2 29,0 58.3,-4.8 74.2,-14.2 z m -74.2,68.9 c -46.1,0 -74.2,-12 -74.2,-18.6 v -32.8 c 16,9.4 45.2,14.2 74.2,14.2 29,0 58.3,-4.8 74.2,-14.2 v 32.8 c 0,6.6 -28.1,18.6 -74.2,18.6 z m 0,-137 c 46.1,0 74.2,12 74.2,18.6 0,6.5 -28.2,18.6 -74.2,18.6 -46.1,0 -74.2,-12 -74.2,-18.6 0,-6.5 28.1,-18.6 74.2,-18.6 z"
   id="path1957"
   inkscape:connector-curvature="0"
   style="fill:#e84f52" />
</g>
</svg>